<svg width="17" height="17" viewBox="0 0 17 17" fill="none" xmlns="http://www.w3.org/2000/svg">
<path d="M0 4C0 1.79086 1.79086 0 4 0H13C15.2091 0 17 1.79086 17 4V13C17 15.2091 15.2091 17 13 17H4C1.79086 17 0 15.2091 0 13V4Z" fill="#1B1D22"/>
<path d="M2 4.51852C2 3.12758 3.12758 2 4.51852 2H12.4815C13.8724 2 15 3.12758 15 4.51852V12.4815C15 13.8724 13.8724 15 12.4815 15H4.51852C3.12758 15 2 13.8724 2 12.4815V4.51852Z" fill="white"/>
<path d="M14.3929 1H2.60714C1.71987 1 1 1.71987 1 2.60714V14.3929C1 15.2801 1.71987 16 2.60714 16H14.3929C15.2801 16 16 15.2801 16 14.3929V2.60714C16 1.71987 15.2801 1 14.3929 1ZM10.2846 13.8471C10.0033 13.8973 9.89955 13.7232 9.89955 13.5792C9.89955 13.3984 9.90625 12.4743 9.90625 11.7277C9.90625 11.2054 9.73214 10.8739 9.5279 10.6998C10.7667 10.5625 12.0725 10.3917 12.0725 8.25223C12.0725 7.64286 11.8549 7.33817 11.5 6.94643C11.5569 6.80246 11.7478 6.20982 11.4431 5.43973C10.9777 5.29576 9.91295 6.03906 9.91295 6.03906C9.47098 5.91518 8.99219 5.85156 8.52009 5.85156C8.04799 5.85156 7.5692 5.91518 7.12723 6.03906C7.12723 6.03906 6.0625 5.29576 5.5971 5.43973C5.29241 6.20647 5.47991 6.79911 5.54018 6.94643C5.18527 7.33817 5.01786 7.64286 5.01786 8.25223C5.01786 10.3817 6.26674 10.5625 7.50558 10.6998C7.34487 10.8438 7.20089 11.0915 7.15067 11.4464C6.83259 11.5904 6.01897 11.8382 5.53348 10.981C5.22879 10.452 4.67969 10.4085 4.67969 10.4085C4.13728 10.4018 4.64286 10.75 4.64286 10.75C5.00446 10.9174 5.25893 11.5603 5.25893 11.5603C5.58371 12.5547 7.13728 12.2199 7.13728 12.2199C7.13728 12.6853 7.14397 13.442 7.14397 13.5792C7.14397 13.7232 7.04353 13.8973 6.75893 13.8471C4.54911 13.1071 3.00223 11.0045 3.00223 8.54687C3.00223 5.47321 5.35268 3.13951 8.42634 3.13951C11.5 3.13951 13.9911 5.47321 13.9911 8.54687C13.9944 11.0045 12.4944 13.1105 10.2846 13.8471ZM7 11.8013C6.93638 11.8147 6.87612 11.7879 6.86942 11.7444C6.86272 11.6942 6.90625 11.6507 6.96987 11.6373C7.03348 11.6306 7.09375 11.6574 7.10045 11.7009C7.11049 11.7444 7.06696 11.7879 7 11.8013ZM6.68192 11.7712C6.68192 11.8147 6.6317 11.8516 6.56473 11.8516C6.49107 11.8583 6.44085 11.8214 6.44085 11.7712C6.44085 11.7277 6.49107 11.6908 6.55804 11.6908C6.62165 11.6842 6.68192 11.721 6.68192 11.7712ZM6.22321 11.7344C6.20982 11.7779 6.14286 11.798 6.08594 11.7779C6.02232 11.7645 5.9788 11.7143 5.99219 11.6708C6.00558 11.6272 6.07254 11.6071 6.12946 11.6205C6.19643 11.6406 6.23996 11.6908 6.22321 11.7344ZM5.81138 11.5536C5.78125 11.5904 5.71763 11.5837 5.66741 11.5335C5.61719 11.49 5.60379 11.4263 5.63728 11.3962C5.66741 11.3594 5.73103 11.3661 5.78125 11.4163C5.82478 11.4598 5.84152 11.5268 5.81138 11.5536ZM5.5067 11.2489C5.47656 11.269 5.41964 11.2489 5.38281 11.1987C5.34598 11.1484 5.34598 11.0915 5.38281 11.0681C5.41964 11.0379 5.47656 11.0614 5.5067 11.1116C5.54353 11.1618 5.54353 11.2221 5.5067 11.2489ZM5.28906 10.9241C5.25893 10.9542 5.20871 10.9375 5.17188 10.904C5.13504 10.8605 5.12835 10.8103 5.15848 10.7868C5.18862 10.7567 5.23884 10.7734 5.27567 10.8069C5.3125 10.8504 5.3192 10.9007 5.28906 10.9241ZM5.06473 10.6763C5.05134 10.7065 5.00781 10.7132 4.97098 10.6897C4.92746 10.6696 4.90737 10.6328 4.92076 10.6027C4.93415 10.5826 4.97098 10.5725 5.01451 10.5893C5.05804 10.6127 5.07813 10.6496 5.06473 10.6763Z" fill="#1B1D22"/>
</svg>
