<svg width="16" height="17" viewBox="0 0 16 17" fill="none" xmlns="http://www.w3.org/2000/svg">
<path d="M11.3333 16.0833V13.3421C11.3599 13.0043 11.3143 12.6648 11.1995 12.346C11.0847 12.0273 10.9033 11.7366 10.6675 11.4933C12.8917 11.2454 15.2292 10.4025 15.2292 6.535C15.229 5.54604 14.8486 4.59501 14.1667 3.87875C14.4896 3.01352 14.4667 2.05716 14.1029 1.20833C14.1029 1.20833 13.2671 0.960416 11.3333 2.25667C9.70984 1.81666 7.99849 1.81666 6.375 2.25667C4.44125 0.960416 3.60542 1.20833 3.60542 1.20833C3.2416 2.05716 3.21877 3.01352 3.54167 3.87875C2.85467 4.60033 2.47387 5.55995 2.47917 6.55625C2.47917 10.3954 4.81667 11.2383 7.04083 11.5146C6.80779 11.7554 6.62806 12.0426 6.51334 12.3574C6.39863 12.6723 6.35149 13.0078 6.375 13.3421V16.0833M6.375 13.9583C2.83333 15.0208 2.83333 12.1875 1.41667 11.8333L6.375 13.9583Z" stroke="#25282B" stroke-width="1.41667" stroke-linecap="round" stroke-linejoin="round"/>
</svg>
