<svg width="17" height="17" viewBox="0 0 17 17" fill="none" xmlns="http://www.w3.org/2000/svg">
<path d="M13.92 2.06616C13.4313 1.5775 12.8433 1.3335 12.1553 1.3335H3.83067C3.14267 1.3335 2.55467 1.5775 2.066 2.06616C1.57733 2.55483 1.33333 3.14283 1.33333 3.83083V12.1555C1.33333 12.8435 1.57733 13.4315 2.066 13.9202C2.55467 14.4088 3.14267 14.6528 3.83067 14.6528H5.77333C5.9 14.6528 5.99533 14.6482 6.05933 14.6395C6.13379 14.6246 6.201 14.5849 6.25 14.5268C6.31333 14.4602 6.34533 14.3635 6.34533 14.2368L6.34067 13.6468C6.338 13.2708 6.33667 12.9735 6.33667 12.7535L6.13667 12.7882C6.01 12.8115 5.85 12.8215 5.656 12.8188C5.45379 12.8151 5.25223 12.7948 5.05333 12.7582C4.8416 12.7191 4.64228 12.6299 4.472 12.4982C4.29366 12.3633 4.16065 12.1772 4.09067 11.9648L4.004 11.7648C3.93095 11.6071 3.83918 11.4587 3.73067 11.3228C3.60667 11.1608 3.48067 11.0515 3.35333 10.9935L3.29333 10.9502C3.25149 10.9202 3.21344 10.8853 3.18 10.8462C3.14806 10.8099 3.12177 10.769 3.102 10.7248C3.08467 10.6842 3.09933 10.6508 3.14533 10.6248C3.192 10.5982 3.27533 10.5855 3.39733 10.5855L3.57067 10.6122C3.686 10.6348 3.82933 10.7042 3.99933 10.8195C4.17137 10.9368 4.31508 11.091 4.42 11.2708C4.55333 11.5075 4.71333 11.6882 4.90133 11.8128C5.08933 11.9368 5.27867 11.9995 5.46933 11.9995C5.66 11.9995 5.82467 11.9848 5.964 11.9562C6.09874 11.9283 6.22967 11.8844 6.354 11.8255C6.406 11.4388 6.54733 11.1402 6.77867 10.9322C6.47892 10.9028 6.18184 10.8506 5.89 10.7762C5.60519 10.6979 5.33129 10.5844 5.07467 10.4382C4.80616 10.292 4.569 10.0945 4.37667 9.85683C4.192 9.6255 4.04 9.32216 3.92133 8.94683C3.80333 8.57083 3.744 8.13683 3.744 7.6455C3.744 6.94616 3.972 6.35083 4.42867 5.85883C4.21533 5.3335 4.23533 4.7435 4.48933 4.09083C4.65733 4.03816 4.906 4.0775 5.23533 4.2075C5.56467 4.3375 5.806 4.44883 5.95933 4.54083C6.11267 4.63416 6.23533 4.71216 6.328 4.7755C6.86998 4.62467 7.43009 4.54885 7.99267 4.55016C8.56533 4.55016 9.12 4.6255 9.658 4.7755L9.98733 4.5675C10.2407 4.4154 10.5079 4.28771 10.7853 4.18616C11.092 4.07016 11.3253 4.03883 11.488 4.09083C11.748 4.74416 11.7707 5.3335 11.5567 5.8595C12.0133 6.35083 12.242 6.94616 12.242 7.64616C12.242 8.1375 12.1827 8.57283 12.064 8.95083C11.946 9.3295 11.7927 9.63283 11.6047 9.8615C11.4089 10.0961 11.1708 10.2917 10.9027 10.4382C10.6227 10.5942 10.3507 10.7068 10.0873 10.7762C9.79552 10.8509 9.49844 10.9032 9.19867 10.9328C9.49867 11.1928 9.64933 11.6028 9.64933 12.1635V14.2368C9.64933 14.3348 9.66333 14.4142 9.69267 14.4748C9.70615 14.5041 9.72537 14.5303 9.7492 14.5519C9.77302 14.5736 9.80095 14.5902 9.83133 14.6008C9.89533 14.6235 9.95133 14.6382 10.0007 14.6435C10.05 14.6502 10.1207 14.6522 10.2127 14.6522H12.1553C12.8433 14.6522 13.4313 14.4082 13.92 13.9195C14.408 13.4315 14.6527 12.8428 14.6527 12.1548V3.83083C14.6527 3.14283 14.408 2.55483 13.9193 2.06616H13.92Z" fill="black"/>
</svg>
