<svg width="17" height="17" viewBox="0 0 17 17" fill="none" xmlns="http://www.w3.org/2000/svg">
<path d="M0 4C0 1.79086 1.79086 0 4 0H13C15.2091 0 17 1.79086 17 4V13C17 15.2091 15.2091 17 13 17H4C1.79086 17 0 15.2091 0 13V4Z" fill="#1B1D22"/>
<g clip-path="url(#clip0)">
<path d="M13.7156 8.09859C13.7739 8.43419 13.803 8.77422 13.8025 9.11484C13.8025 10.6361 13.2587 11.9223 12.3125 12.793H12.3137C11.4862 13.5573 10.3487 13.9998 9 13.9998C7.67392 13.9998 6.40215 13.4731 5.46447 12.5354C4.52678 11.5977 4 10.3259 4 8.99984C4 7.67376 4.52678 6.40199 5.46447 5.46431C6.40215 4.52663 7.67392 3.99984 9 3.99984C10.2412 3.98531 11.4399 4.45161 12.345 5.30109L10.9175 6.72859C10.4015 6.2367 9.71281 5.96734 9 5.97859C7.69562 5.97859 6.5875 6.85859 6.1925 8.04359C5.98307 8.66453 5.98307 9.33703 6.1925 9.95797H6.19437C6.59125 11.1411 7.6975 12.0211 9.00187 12.0211C9.67562 12.0211 10.2544 11.8486 10.7031 11.5436H10.7012C10.9618 11.371 11.1847 11.1473 11.3565 10.8862C11.5282 10.6251 11.6453 10.3318 11.7006 10.0242H9V8.09922H13.7156V8.09859Z" fill="white"/>
</g>
<defs>
<clipPath id="clip0">
<rect width="10" height="10" fill="white" transform="translate(4 4)"/>
</clipPath>
</defs>
</svg>
