<svg width="159" height="37" viewBox="0 0 159 37" fill="none" xmlns="http://www.w3.org/2000/svg">
  <circle cx="18.5" cy="18.5" r="18" fill="#F2F2F2"/>
  <path d="M18.6095 9.70947L28.3169 27.2659H8.90216L18.6095 9.70947Z" fill="#333333"/>
  <path d="M28.3716 27.2615L25.8299 22.7583L8.87207 27.2615H28.3716Z" fill="#DDDDDD"/>
  <path d="M22.0896 15.9219L25.8616 22.8318L8.87207 27.2693L22.0896 15.9219Z" fill="#B1B1B1"/>
  <path d="M52.2713 25.5L53.3509 22.1832H58.5994L59.679 25.5H62.9744L57.9602 10.9545H53.9972L48.9759 25.5H52.2713ZM54.1321 19.7827L55.9219 14.2784H56.0355L57.8253 19.7827H54.1321ZM70.22 14.5909H68.0538V13.8594C68.0538 13.1207 68.3521 12.6875 69.2398 12.6875C69.6021 12.6875 69.9714 12.7656 70.2129 12.8438L70.7455 10.571C70.3691 10.4574 69.5381 10.2727 68.6077 10.2727C66.5552 10.2727 65.0282 11.4304 65.0282 13.8026V14.5909H63.487V16.8636H65.0282V25.5H68.0538V16.8636H70.22V14.5909ZM77.8348 14.5909H75.6686V13.8594C75.6686 13.1207 75.9669 12.6875 76.8547 12.6875C77.2169 12.6875 77.5862 12.7656 77.8277 12.8438L78.3604 10.571C77.9839 10.4574 77.153 10.2727 76.2226 10.2727C74.17 10.2727 72.643 11.4304 72.643 13.8026V14.5909H71.1018V16.8636H72.643V25.5H75.6686V16.8636H77.8348V14.5909ZM84.1215 25.7131C87.4312 25.7131 89.4908 23.4474 89.4908 20.0881C89.4908 16.7074 87.4312 14.4489 84.1215 14.4489C80.8119 14.4489 78.7522 16.7074 78.7522 20.0881C78.7522 23.4474 80.8119 25.7131 84.1215 25.7131ZM84.1357 23.3693C82.6087 23.3693 81.8275 21.9702 81.8275 20.0668C81.8275 18.1634 82.6087 16.7571 84.1357 16.7571C85.6343 16.7571 86.4156 18.1634 86.4156 20.0668C86.4156 21.9702 85.6343 23.3693 84.1357 23.3693ZM91.3582 25.5H94.3837V19.3281C94.3837 17.9858 95.3638 17.0625 96.6991 17.0625C97.1181 17.0625 97.6934 17.1335 97.9775 17.2259V14.5412C97.7076 14.4773 97.3312 14.4347 97.0258 14.4347C95.8042 14.4347 94.8028 15.1449 94.405 16.4943H94.2914V14.5909H91.3582V25.5ZM102.954 25.6776C104.715 25.6776 105.631 24.6619 106.05 23.7528H106.178V25.5H109.161V10.9545H106.143V16.4233H106.05C105.646 15.5355 104.772 14.4489 102.947 14.4489C100.553 14.4489 98.5291 16.3097 98.5291 20.0597C98.5291 23.7102 100.468 25.6776 102.954 25.6776ZM103.913 23.2699C102.428 23.2699 101.619 21.9489 101.619 20.0455C101.619 18.1562 102.414 16.8565 103.913 16.8565C105.383 16.8565 106.207 18.0994 106.207 20.0455C106.207 21.9915 105.369 23.2699 103.913 23.2699ZM114.66 25.706C116.272 25.706 117.316 25.0028 117.849 23.9872H117.934V25.5H120.803V18.142C120.803 15.5426 118.601 14.4489 116.172 14.4489C113.559 14.4489 111.84 15.6989 111.421 17.6875L114.219 17.9148C114.425 17.1903 115.072 16.6577 116.158 16.6577C117.188 16.6577 117.777 17.1761 117.777 18.071V18.1136C117.777 18.8168 117.032 18.9091 115.135 19.0938C112.976 19.2926 111.037 20.017 111.037 22.4531C111.037 24.6122 112.579 25.706 114.66 25.706ZM115.526 23.6179C114.596 23.6179 113.928 23.1847 113.928 22.3537C113.928 21.5014 114.631 21.0824 115.697 20.9332C116.357 20.8409 117.437 20.6847 117.799 20.4432V21.6009C117.799 22.7443 116.854 23.6179 115.526 23.6179ZM126.076 19.1932C126.083 17.7869 126.921 16.9631 128.143 16.9631C129.357 16.9631 130.089 17.7585 130.082 19.0938V25.5H133.107V18.554C133.107 16.0114 131.616 14.4489 129.343 14.4489C127.724 14.4489 126.552 15.2443 126.062 16.5156H125.934V14.5909H123.05V25.5H126.076V19.1932ZM140.321 25.7131C143.226 25.7131 145.051 24.0085 145.193 21.5014H142.338C142.16 22.6662 141.393 23.3196 140.356 23.3196C138.943 23.3196 138.027 22.1335 138.027 20.0455C138.027 17.9858 138.95 16.8068 140.356 16.8068C141.464 16.8068 142.174 17.5384 142.338 18.625H145.193C145.065 16.1037 143.155 14.4489 140.307 14.4489C136.997 14.4489 134.951 16.7429 134.951 20.0881C134.951 23.4048 136.961 25.7131 140.321 25.7131ZM152.002 25.7131C154.7 25.7131 156.519 24.3991 156.945 22.375L154.147 22.1903C153.841 23.0213 153.06 23.4545 152.051 23.4545C150.539 23.4545 149.58 22.4531 149.58 20.8267V20.8196H157.009V19.9886C157.009 16.2812 154.764 14.4489 151.881 14.4489C148.671 14.4489 146.59 16.7287 146.59 20.0952C146.59 23.554 148.642 25.7131 152.002 25.7131ZM149.58 18.9446C149.644 17.7017 150.588 16.7074 151.931 16.7074C153.245 16.7074 154.154 17.6449 154.161 18.9446H149.58Z" fill="black"/>
</svg>
